<svg xmlns="http://www.w3.org/2000/svg" viewBox="0 0 100 100">
  <defs>
    <filter id="crayonG4" x="-10%" y="-10%" width="120%" height="120%">
      <feTurbulence type="fractalNoise" baseFrequency="0.035" numOctaves="3" result="noise" seed="130"/>
      <feDisplacementMap in="SourceGraphic" in2="noise" scale="1.2" xChannelSelector="R" yChannelSelector="G"/>
      <feGaussianBlur stdDeviation="0.15"/>
    </filter>
  </defs>
  
  <!-- Background -->
  <rect width="100" height="100" fill="#FFF8E1"/>
  <circle cx="50" cy="50" r="48" fill="#FFFEF8" stroke="#A8D4D8" stroke-width="2"/>
  
  <!-- Globe - Asia/Pacific centered -->
  <g filter="url(#crayonG4)">
    <!-- Ocean - Pacific blue -->
    <circle cx="50" cy="50" r="42" fill="#3D9ED9"/>
    
    <!-- RUSSIA/SIBERIA - Northern Asia -->
    <path d="
      M8 20 Q16 14, 32 16
      Q48 18, 62 24 Q72 30, 74 38
      Q70 42, 62 40 Q52 38, 42 40
      Q32 42, 24 38 Q16 34, 12 28
      Q8 24, 8 20
    " fill="#5CB85C"/>
    <!-- Kamchatka Peninsula -->
    <path d="M72 32 Q78 28, 82 34 Q84 42, 80 48 Q76 50, 74 44 Q72 38, 72 32" fill="#5CB85C"/>
    
    <!-- CHINA - Distinctive shape -->
    <path d="
      M22 42 Q32 38, 46 42
      Q58 46, 64 56 Q66 66, 60 72
      Q52 76, 42 74 Q32 72, 26 64
      Q20 56, 20 48 Q20 44, 22 42
    " fill="#5CB85C"/>
    <!-- Tibet plateau indent suggestion -->
    <path d="M28 52 Q36 48, 42 54 Q44 60, 38 64 Q32 62, 28 58 Q26 56, 28 52" fill="#4BAD5C"/>
    
    <!-- KOREAN PENINSULA -->
    <path d="M66 48 Q70 44, 74 48 Q76 56, 74 64 Q72 68, 68 66 Q66 60, 66 52 Q64 50, 66 48" fill="#5CB85C"/>
    
    <!-- JAPAN - Archipelago -->
    <!-- Hokkaido -->
    <ellipse cx="82" cy="40" rx="5" ry="4" fill="#5CB85C" transform="rotate(30 82 40)"/>
    <!-- Honshu (main island) - curved shape -->
    <path d="M78 46 Q84 44, 88 50 Q90 58, 86 66 Q82 68, 80 62 Q78 56, 78 46" fill="#5CB85C"/>
    <!-- Kyushu -->
    <ellipse cx="78" cy="68" rx="4" ry="3" fill="#5CB85C"/>
    <!-- Shikoku -->
    <ellipse cx="82" cy="64" rx="3" ry="2" fill="#5CB85C"/>
    
    <!-- TAIWAN -->
    <path d="M72 72 Q76 70, 78 76 Q78 82, 74 84 Q72 82, 72 76 Q70 74, 72 72" fill="#5CB85C"/>
    
    <!-- SOUTHEAST ASIA -->
    <!-- Vietnam shape -->
    <path d="M52 72 Q56 68, 60 72 Q62 82, 58 90 Q54 92, 52 88 Q50 82, 52 72" fill="#5CB85C"/>
    <!-- Thailand/Myanmar -->
    <path d="M42 74 Q48 70, 52 76 Q54 84, 50 90 Q46 92, 44 88 Q40 82, 42 74" fill="#5CB85C"/>
    <!-- Malay Peninsula -->
    <path d="M48 90 Q52 88, 54 94 Q54 102, 50 108 Q48 110, 46 106 Q46 98, 48 90" fill="#5CB85C"/>
    
    <!-- PHILIPPINES -->
    <!-- Luzon -->
    <path d="M72 78 Q76 76, 78 82 Q78 90, 74 94 Q72 92, 72 86 Q70 82, 72 78" fill="#5CB85C"/>
    <!-- Mindanao -->
    <ellipse cx="76" cy="98" rx="4" ry="5" fill="#5CB85C" transform="rotate(-10 76 98)"/>
    <!-- Visayas -->
    <ellipse cx="72" cy="92" rx="3" ry="2" fill="#5CB85C"/>
    
    <!-- INDONESIA -->
    <!-- Sumatra -->
    <path d="M38 102 Q44 98, 50 106 Q52 116, 46 122 Q40 124, 38 118 Q36 110, 38 102" fill="#5CB85C"/>
    <!-- Java - narrow curved -->
    <path d="M48 118 Q56 116, 64 120 Q68 124, 62 126 Q54 126, 48 122 Q46 120, 48 118" fill="#5CB85C"/>
    <!-- Borneo -->
    <path d="M56 100 Q64 96, 70 104 Q72 114, 66 120 Q60 122, 56 116 Q54 108, 56 100" fill="#5CB85C"/>
    <!-- Sulawesi - distinctive K shape -->
    <path d="M72 108 Q76 104, 80 108 Q82 116, 78 122 Q76 124, 74 120 Q72 114, 72 108" fill="#5CB85C"/>
    
    <!-- PAPUA NEW GUINEA -->
    <path d="M86 104 Q94 100, 98 110 Q98 122, 90 128 Q84 128, 82 122 Q82 114, 86 104" fill="#5CB85C"/>
    <!-- Bird's head -->
    <path d="M82 108 Q80 104, 84 102 Q88 104, 86 108 Q84 110, 82 108" fill="#5CB85C"/>
    
    <!-- AUSTRALIA - Highly detailed -->
    <path d="
      M52 130
      Q66 124, 84 130
      Q98 138, 98 150
      Q94 160, 82 164
      Q68 166, 56 162
      Q46 158, 44 150
      Q44 142, 48 136
      Q50 132, 52 130
    " fill="#5CB85C"/>
    <!-- Gulf of Carpentaria -->
    <path d="M70 132 Q78 134, 82 140 Q82 146, 76 146 Q72 144, 70 140 Q68 136, 70 132" fill="#3D9ED9"/>
    <!-- Great Australian Bight -->
    <path d="M58 156 Q66 160, 74 158 Q78 154, 72 152 Q66 152, 60 154 Q56 156, 58 156" fill="#3D9ED9"/>
    
    <!-- INDIA visible on edge -->
    <path d="M10 54 Q18 48, 24 56 Q28 68, 22 80 Q16 86, 10 80 Q8 70, 8 62 Q8 56, 10 54" fill="#5CB85C"/>
    <!-- Sri Lanka -->
    <ellipse cx="22" cy="86" rx="4" ry="5" fill="#5CB85C"/>
    
    <!-- NEW ZEALAND -->
    <!-- North Island -->
    <path d="M96 150 Q100 146, 102 154 Q102 164, 98 170 Q96 168, 96 160 Q94 156, 96 150" fill="#5CB85C"/>
    <!-- South Island -->
    <path d="M94 172 Q98 168, 102 174 Q104 186, 98 194 Q94 196, 92 188 Q92 180, 94 172" fill="#5CB85C"/>
    
    <!-- Globe highlight -->
    <ellipse cx="32" cy="28" rx="14" ry="10" fill="white" opacity="0.15"/>
    
    <!-- Globe outline -->
    <circle cx="50" cy="50" r="42" fill="none" stroke="#1A5276" stroke-width="2"/>
  </g>
</svg>
