<svg xmlns="http://www.w3.org/2000/svg" viewBox="0 0 100 100">
  <defs>
    <!-- Crayon texture effect -->
    <filter id="crayonTexture1" x="-10%" y="-10%" width="120%" height="120%">
      <feTurbulence type="fractalNoise" baseFrequency="0.04" numOctaves="4" result="noise" seed="1"/>
      <feDisplacementMap in="SourceGraphic" in2="noise" scale="1.5" xChannelSelector="R" yChannelSelector="G"/>
      <feGaussianBlur stdDeviation="0.3"/>
    </filter>
    
    <!-- Stronger crayon edge effect -->
    <filter id="crayonEdge1">
      <feTurbulence type="fractalNoise" baseFrequency="0.03" numOctaves="3" result="noise" seed="2"/>
      <feDisplacementMap in="SourceGraphic" in2="noise" scale="2" xChannelSelector="R" yChannelSelector="G"/>
    </filter>
  </defs>
  
  <!-- Paper background -->
  <rect width="100" height="100" fill="#FFF8E1"/>
  <circle cx="50" cy="50" r="48" fill="#FFF8E1" stroke="#D4A574" stroke-width="2" filter="url(#crayonEdge1)"/>
  
  <!-- Globe with realistic continents -->
  <g filter="url(#crayonTexture1)">
    <!-- Ocean base -->
    <circle cx="50" cy="40" r="28" fill="#4A90B8"/>
    
    <!-- North America -->
    <path d="M28 28 Q32 24, 38 26 Q42 28, 44 32 Q46 38, 42 42 Q38 44, 34 42 Q30 40, 28 36 Q26 32, 28 28" fill="#6BB85A"/>
    
    <!-- South America -->
    <path d="M38 46 Q42 44, 44 48 Q46 54, 44 60 Q42 64, 38 62 Q36 58, 36 52 Q36 48, 38 46" fill="#6BB85A"/>
    
    <!-- Europe/Africa -->
    <path d="M54 26 Q58 24, 62 28 Q64 32, 62 36 Q60 40, 58 44 Q56 50, 58 56 Q60 60, 56 62 Q52 60, 52 54 Q50 48, 52 42 Q54 36, 52 30 Q52 26, 54 26" fill="#6BB85A"/>
    
    <!-- Asia hint -->
    <path d="M64 30 Q70 28, 74 32 Q76 38, 72 42 Q68 44, 66 40 Q64 36, 64 30" fill="#6BB85A"/>
    
    <!-- Globe highlight -->
    <ellipse cx="38" cy="32" rx="8" ry="6" fill="white" opacity="0.2"/>
    
    <!-- Globe outline -->
    <circle cx="50" cy="40" r="28" fill="none" stroke="#2C5F7C" stroke-width="2.5"/>
  </g>
  
  <!-- Left child handprint (realistic shape) -->
  <g filter="url(#crayonTexture1)">
    <path d="
      M 8 72
      Q 6 68, 8 64
      L 10 58
      Q 11 54, 14 52
      L 16 48
      Q 18 44, 20 46
      Q 22 48, 21 52
      L 20 56
      Q 22 54, 24 50
      L 26 44
      Q 28 40, 30 42
      Q 32 44, 31 48
      L 29 54
      Q 31 52, 33 48
      L 35 42
      Q 37 38, 39 40
      Q 41 42, 40 46
      L 38 52
      Q 40 50, 42 46
      L 43 42
      Q 44 39, 46 41
      Q 48 43, 47 47
      L 45 54
      Q 47 58, 46 64
      Q 44 72, 38 78
      Q 32 82, 24 82
      Q 16 82, 12 78
      Q 8 76, 8 72
      Z
    " fill="#E85D4C"/>
    <path d="
      M 8 72
      Q 6 68, 8 64
      L 10 58
      Q 11 54, 14 52
      L 16 48
      Q 18 44, 20 46
      Q 22 48, 21 52
      L 20 56
      Q 22 54, 24 50
      L 26 44
      Q 28 40, 30 42
      Q 32 44, 31 48
      L 29 54
      Q 31 52, 33 48
      L 35 42
      Q 37 38, 39 40
      Q 41 42, 40 46
      L 38 52
      Q 40 50, 42 46
      L 43 42
      Q 44 39, 46 41
      Q 48 43, 47 47
      L 45 54
      Q 47 58, 46 64
      Q 44 72, 38 78
      Q 32 82, 24 82
      Q 16 82, 12 78
      Q 8 76, 8 72
      Z
    " fill="none" stroke="#C4483A" stroke-width="1.5"/>
  </g>
  
  <!-- Right child handprint (realistic shape, mirrored) -->
  <g filter="url(#crayonTexture1)">
    <path d="
      M 92 72
      Q 94 68, 92 64
      L 90 58
      Q 89 54, 86 52
      L 84 48
      Q 82 44, 80 46
      Q 78 48, 79 52
      L 80 56
      Q 78 54, 76 50
      L 74 44
      Q 72 40, 70 42
      Q 68 44, 69 48
      L 71 54
      Q 69 52, 67 48
      L 65 42
      Q 63 38, 61 40
      Q 59 42, 60 46
      L 62 52
      Q 60 50, 58 46
      L 57 42
      Q 56 39, 54 41
      Q 52 43, 53 47
      L 55 54
      Q 53 58, 54 64
      Q 56 72, 62 78
      Q 68 82, 76 82
      Q 84 82, 88 78
      Q 92 76, 92 72
      Z
    " fill="#F5A623"/>
    <path d="
      M 92 72
      Q 94 68, 92 64
      L 90 58
      Q 89 54, 86 52
      L 84 48
      Q 82 44, 80 46
      Q 78 48, 79 52
      L 80 56
      Q 78 54, 76 50
      L 74 44
      Q 72 40, 70 42
      Q 68 44, 69 48
      L 71 54
      Q 69 52, 67 48
      L 65 42
      Q 63 38, 61 40
      Q 59 42, 60 46
      L 62 52
      Q 60 50, 58 46
      L 57 42
      Q 56 39, 54 41
      Q 52 43, 53 47
      L 55 54
      Q 53 58, 54 64
      Q 56 72, 62 78
      Q 68 82, 76 82
      Q 84 82, 88 78
      Q 92 76, 92 72
      Z
    " fill="none" stroke="#D4890F" stroke-width="1.5"/>
  </g>
</svg>
