<svg xmlns="http://www.w3.org/2000/svg" viewBox="0 0 100 100">
  <defs>
    <filter id="crayonG5" x="-10%" y="-10%" width="120%" height="120%">
      <feTurbulence type="fractalNoise" baseFrequency="0.035" numOctaves="3" result="noise" seed="140"/>
      <feDisplacementMap in="SourceGraphic" in2="noise" scale="1.2" xChannelSelector="R" yChannelSelector="G"/>
      <feGaussianBlur stdDeviation="0.15"/>
    </filter>
    <linearGradient id="landGreen" x1="0%" y1="0%" x2="100%" y2="100%">
      <stop offset="0%" style="stop-color:#6ECF6E"/>
      <stop offset="100%" style="stop-color:#4AAF4A"/>
    </linearGradient>
  </defs>
  
  <!-- Background -->
  <rect width="100" height="100" fill="#FFF8E1"/>
  <circle cx="50" cy="50" r="48" fill="#FFFEF8" stroke="#5CB85C" stroke-width="2.5"/>
  
  <!-- Globe - Optimal angle for maximum visibility -->
  <g filter="url(#crayonG5)">
    <!-- Ocean -->
    <circle cx="50" cy="50" r="42" fill="#4BA3D9"/>
    
    <!-- Subtle latitude/longitude lines -->
    <ellipse cx="50" cy="28" rx="36" ry="10" fill="none" stroke="white" stroke-width="0.5" opacity="0.2"/>
    <ellipse cx="50" cy="50" rx="42" ry="14" fill="none" stroke="white" stroke-width="0.5" opacity="0.2"/>
    <ellipse cx="50" cy="72" rx="36" ry="10" fill="none" stroke="white" stroke-width="0.5" opacity="0.2"/>
    
    <!-- GREENLAND -->
    <path d="M36 12 Q44 8, 50 12 Q54 18, 52 24 Q46 28, 40 26 Q36 22, 34 18 Q34 14, 36 12" fill="url(#landGreen)"/>
    
    <!-- NORTH AMERICA -->
    <!-- Canada with Hudson Bay -->
    <path d="
      M12 24 Q18 18, 30 18
      Q42 18, 50 24 Q52 28, 50 32
      Q46 34, 42 32 Q40 36, 36 36
      Q32 34, 28 36 Q24 36, 20 32
      Q16 30, 14 26 Q12 26, 12 24
    " fill="url(#landGreen)"/>
    <!-- Hudson Bay -->
    <path d="M30 24 Q36 22, 42 26 Q46 32, 40 36 Q34 36, 30 32 Q28 28, 30 24" fill="#4BA3D9"/>
    
    <!-- USA with Florida -->
    <path d="
      M16 36 Q24 34, 34 38
      Q44 42, 48 50 Q46 54, 42 54
      Q38 52, 36 56 Q32 60, 28 56
      Q22 52, 18 46 Q16 42, 16 36
    " fill="url(#landGreen)"/>
    <!-- Florida -->
    <path d="M38 56 Q42 54, 44 60 Q46 68, 42 74 Q40 74, 38 70 Q36 64, 38 56" fill="url(#landGreen)"/>
    
    <!-- Mexico with Baja -->
    <path d="M20 52 Q28 48, 34 54 Q38 60, 36 66 Q32 70, 26 68 Q20 66, 18 60 Q18 56, 20 52" fill="url(#landGreen)"/>
    <!-- Baja California -->
    <path d="M16 54 Q14 50, 16 46 Q20 48, 22 54 Q22 60, 18 62 Q16 60, 16 54" fill="url(#landGreen)"/>
    
    <!-- Central America -->
    <path d="M30 70 Q34 68, 36 74 Q38 82, 36 88 Q34 90, 32 86 Q30 80, 30 70" fill="url(#landGreen)"/>
    
    <!-- Cuba -->
    <path d="M42 68 Q50 66, 56 70 Q58 72, 54 74 Q48 76, 42 72 Q40 70, 42 68" fill="url(#landGreen)"/>
    
    <!-- SOUTH AMERICA - Detailed -->
    <path d="
      M36 88
      Q44 84, 54 90
      Q64 98, 62 110
      Q60 120, 54 126
      Q48 130, 42 128
      Q36 124, 34 116
      Q32 106, 34 96
      Q34 90, 36 88
    " fill="url(#landGreen)"/>
    <!-- Brazil bulge -->
    <path d="M54 94 Q66 92, 72 104 Q74 116, 66 122 Q60 118, 56 108 Q54 100, 54 94" fill="url(#landGreen)"/>
    
    <!-- EUROPE -->
    <!-- Scandinavia -->
    <path d="M54 16 Q60 12, 64 18 Q66 26, 62 34 Q58 38, 56 32 Q54 26, 52 22 Q52 18, 54 16" fill="url(#landGreen)"/>
    
    <!-- UK -->
    <path d="M48 30 Q52 28, 54 34 Q54 42, 50 46 Q48 48, 46 44 Q46 38, 48 30" fill="url(#landGreen)"/>
    <!-- Ireland -->
    <ellipse cx="44" cy="40" rx="3" ry="5" fill="url(#landGreen)"/>
    
    <!-- Western Europe -->
    <path d="M54 42 Q62 38, 68 46 Q70 54, 66 60 Q60 64, 54 60 Q52 54, 52 48 Q52 44, 54 42" fill="url(#landGreen)"/>
    
    <!-- Italy -->
    <path d="M66 52 Q70 50, 72 56 Q74 64, 72 72 Q70 74, 68 70 Q66 64, 66 56 Q64 54, 66 52" fill="url(#landGreen)"/>
    
    <!-- AFRICA - Highly recognizable -->
    <path d="
      M56 64
      Q66 58, 80 66
      Q90 78, 90 94
      Q88 108, 80 118
      Q70 126, 62 122
      Q54 116, 52 104
      Q50 92, 52 80
      Q54 70, 56 64
    " fill="url(#landGreen)"/>
    <!-- West Africa bulge -->
    <path d="M50 78 Q58 72, 66 80 Q70 90, 64 98 Q56 102, 50 96 Q48 88, 50 78" fill="url(#landGreen)"/>
    <!-- Horn of Africa -->
    <path d="M88 86 Q96 82, 98 92 Q98 102, 92 106 Q90 102, 88 94 Q86 90, 88 86" fill="url(#landGreen)"/>
    
    <!-- Madagascar -->
    <path d="M92 104 Q98 100, 100 112 Q100 126, 94 132 Q90 130, 90 120 Q90 110, 92 104" fill="url(#landGreen)"/>
    
    <!-- MIDDLE EAST -->
    <path d="M80 56 Q88 52, 94 62 Q98 74, 92 84 Q86 86, 84 80 Q80 72, 78 64 Q78 58, 80 56" fill="url(#landGreen)"/>
    
    <!-- INDIA visible -->
    <path d="M90 70 Q96 66, 100 76 Q102 90, 96 100 Q92 102, 90 94 Q88 84, 90 70" fill="url(#landGreen)"/>
    
    <!-- Globe highlight -->
    <ellipse cx="28" cy="28" rx="14" ry="10" fill="white" opacity="0.18"/>
    
    <!-- Globe outline -->
    <circle cx="50" cy="50" r="42" fill="none" stroke="#1A5276" stroke-width="2"/>
  </g>
</svg>
