<svg xmlns="http://www.w3.org/2000/svg" viewBox="0 0 100 100">
  <defs>
    <linearGradient id="rainbow" x1="0%" y1="0%" x2="100%" y2="100%">
      <stop offset="0%" style="stop-color:#EE4035"/>
      <stop offset="25%" style="stop-color:#F37736"/>
      <stop offset="50%" style="stop-color:#7BC043"/>
      <stop offset="75%" style="stop-color:#0392CF"/>
      <stop offset="100%" style="stop-color:#9B59B6"/>
    </linearGradient>
  </defs>
  <!-- Background circle -->
  <circle cx="50" cy="50" r="48" fill="#FFF8E1" stroke="#F37736" stroke-width="3"/>
  <!-- Hand palm -->
  <ellipse cx="50" cy="62" rx="22" ry="20" fill="url(#rainbow)"/>
  <!-- Thumb -->
  <ellipse cx="26" cy="52" rx="7" ry="12" fill="#EE4035" transform="rotate(-30 26 52)"/>
  <!-- Index finger -->
  <ellipse cx="35" cy="28" rx="6" ry="14" fill="#F37736"/>
  <!-- Middle finger -->
  <ellipse cx="50" cy="24" rx="6" ry="16" fill="#FCE94F"/>
  <!-- Ring finger -->
  <ellipse cx="65" cy="28" rx="6" ry="14" fill="#7BC043"/>
  <!-- Pinky -->
  <ellipse cx="77" cy="38" rx="5" ry="12" fill="#0392CF" transform="rotate(15 77 38)"/>
  <!-- Heart in palm -->
  <path d="M50 58 C50 54, 44 50, 44 55 C44 60, 50 66, 50 66 C50 66, 56 60, 56 55 C56 50, 50 54, 50 58" fill="#FFF8E1" opacity="0.8"/>
</svg>
