<svg xmlns="http://www.w3.org/2000/svg" viewBox="0 0 100 100">
  <defs>
    <filter id="crayon4" x="-20%" y="-20%" width="140%" height="140%">
      <feTurbulence type="fractalNoise" baseFrequency="0.04" numOctaves="3" result="noise"/>
      <feDisplacementMap in="SourceGraphic" in2="noise" scale="1.8" xChannelSelector="R" yChannelSelector="G"/>
    </filter>
    <filter id="handprint4">
      <feTurbulence type="fractalNoise" baseFrequency="0.08" numOctaves="2" result="noise"/>
      <feDisplacementMap in="SourceGraphic" in2="noise" scale="0.8" xChannelSelector="R" yChannelSelector="G"/>
    </filter>
  </defs>
  
  <!-- Paper background -->
  <circle cx="50" cy="50" r="48" fill="#FFF8E1" stroke="#9B59B6" stroke-width="3"/>
  
  <!-- Tiny handprints in a circle around the globe -->
  <!-- Red - top -->
  <g filter="url(#handprint4)" transform="translate(42, 4) scale(0.28)">
    <ellipse cx="18" cy="22" rx="14" ry="11" fill="#EE4035"/>
    <ellipse cx="5" cy="10" rx="4.5" ry="11" fill="#EE4035" transform="rotate(-18 5 10)"/>
    <ellipse cx="13" cy="1" rx="4" ry="12" fill="#EE4035" transform="rotate(-5 13 1)"/>
    <ellipse cx="23" cy="0" rx="4" ry="13" fill="#EE4035"/>
    <ellipse cx="33" cy="3" rx="3.5" ry="11" fill="#EE4035" transform="rotate(12 33 3)"/>
    <ellipse cx="40" cy="12" rx="3.5" ry="9" fill="#EE4035" transform="rotate(28 40 12)"/>
  </g>
  
  <!-- Orange - top right -->
  <g filter="url(#handprint4)" transform="translate(72, 18) rotate(60 10 10) scale(0.28)">
    <ellipse cx="18" cy="22" rx="14" ry="11" fill="#F37736"/>
    <ellipse cx="5" cy="10" rx="4.5" ry="11" fill="#F37736" transform="rotate(-18 5 10)"/>
    <ellipse cx="13" cy="1" rx="4" ry="12" fill="#F37736" transform="rotate(-5 13 1)"/>
    <ellipse cx="23" cy="0" rx="4" ry="13" fill="#F37736"/>
    <ellipse cx="33" cy="3" rx="3.5" ry="11" fill="#F37736" transform="rotate(12 33 3)"/>
    <ellipse cx="40" cy="12" rx="3.5" ry="9" fill="#F37736" transform="rotate(28 40 12)"/>
  </g>
  
  <!-- Yellow - right -->
  <g filter="url(#handprint4)" transform="translate(80, 44) rotate(100 8 10) scale(0.28)">
    <ellipse cx="18" cy="22" rx="14" ry="11" fill="#FCE94F"/>
    <ellipse cx="5" cy="10" rx="4.5" ry="11" fill="#FCE94F" transform="rotate(-18 5 10)"/>
    <ellipse cx="13" cy="1" rx="4" ry="12" fill="#FCE94F" transform="rotate(-5 13 1)"/>
    <ellipse cx="23" cy="0" rx="4" ry="13" fill="#FCE94F"/>
    <ellipse cx="33" cy="3" rx="3.5" ry="11" fill="#FCE94F" transform="rotate(12 33 3)"/>
    <ellipse cx="40" cy="12" rx="3.5" ry="9" fill="#FCE94F" transform="rotate(28 40 12)"/>
  </g>
  
  <!-- Green - bottom right -->
  <g filter="url(#handprint4)" transform="translate(68, 72) rotate(145 10 8) scale(0.28)">
    <ellipse cx="18" cy="22" rx="14" ry="11" fill="#7BC043"/>
    <ellipse cx="5" cy="10" rx="4.5" ry="11" fill="#7BC043" transform="rotate(-18 5 10)"/>
    <ellipse cx="13" cy="1" rx="4" ry="12" fill="#7BC043" transform="rotate(-5 13 1)"/>
    <ellipse cx="23" cy="0" rx="4" ry="13" fill="#7BC043"/>
    <ellipse cx="33" cy="3" rx="3.5" ry="11" fill="#7BC043" transform="rotate(12 33 3)"/>
    <ellipse cx="40" cy="12" rx="3.5" ry="9" fill="#7BC043" transform="rotate(28 40 12)"/>
  </g>
  
  <!-- Blue - bottom -->
  <g filter="url(#handprint4)" transform="translate(38, 82) rotate(185 12 6) scale(0.28)">
    <ellipse cx="18" cy="22" rx="14" ry="11" fill="#0392CF"/>
    <ellipse cx="5" cy="10" rx="4.5" ry="11" fill="#0392CF" transform="rotate(-18 5 10)"/>
    <ellipse cx="13" cy="1" rx="4" ry="12" fill="#0392CF" transform="rotate(-5 13 1)"/>
    <ellipse cx="23" cy="0" rx="4" ry="13" fill="#0392CF"/>
    <ellipse cx="33" cy="3" rx="3.5" ry="11" fill="#0392CF" transform="rotate(12 33 3)"/>
    <ellipse cx="40" cy="12" rx="3.5" ry="9" fill="#0392CF" transform="rotate(28 40 12)"/>
  </g>
  
  <!-- Purple - bottom left -->
  <g filter="url(#handprint4)" transform="translate(8, 68) rotate(220 14 10) scale(0.28)">
    <ellipse cx="18" cy="22" rx="14" ry="11" fill="#9B59B6"/>
    <ellipse cx="5" cy="10" rx="4.5" ry="11" fill="#9B59B6" transform="rotate(-18 5 10)"/>
    <ellipse cx="13" cy="1" rx="4" ry="12" fill="#9B59B6" transform="rotate(-5 13 1)"/>
    <ellipse cx="23" cy="0" rx="4" ry="13" fill="#9B59B6"/>
    <ellipse cx="33" cy="3" rx="3.5" ry="11" fill="#9B59B6" transform="rotate(12 33 3)"/>
    <ellipse cx="40" cy="12" rx="3.5" ry="9" fill="#9B59B6" transform="rotate(28 40 12)"/>
  </g>
  
  <!-- Pink - left -->
  <g filter="url(#handprint4)" transform="translate(0, 40) rotate(260 14 12) scale(0.28)">
    <ellipse cx="18" cy="22" rx="14" ry="11" fill="#E91E8C"/>
    <ellipse cx="5" cy="10" rx="4.5" ry="11" fill="#E91E8C" transform="rotate(-18 5 10)"/>
    <ellipse cx="13" cy="1" rx="4" ry="12" fill="#E91E8C" transform="rotate(-5 13 1)"/>
    <ellipse cx="23" cy="0" rx="4" ry="13" fill="#E91E8C"/>
    <ellipse cx="33" cy="3" rx="3.5" ry="11" fill="#E91E8C" transform="rotate(12 33 3)"/>
    <ellipse cx="40" cy="12" rx="3.5" ry="9" fill="#E91E8C" transform="rotate(28 40 12)"/>
  </g>
  
  <!-- Teal - top left -->
  <g filter="url(#handprint4)" transform="translate(10, 14) rotate(310 12 12) scale(0.28)">
    <ellipse cx="18" cy="22" rx="14" ry="11" fill="#17a2b8"/>
    <ellipse cx="5" cy="10" rx="4.5" ry="11" fill="#17a2b8" transform="rotate(-18 5 10)"/>
    <ellipse cx="13" cy="1" rx="4" ry="12" fill="#17a2b8" transform="rotate(-5 13 1)"/>
    <ellipse cx="23" cy="0" rx="4" ry="13" fill="#17a2b8"/>
    <ellipse cx="33" cy="3" rx="3.5" ry="11" fill="#17a2b8" transform="rotate(12 33 3)"/>
    <ellipse cx="40" cy="12" rx="3.5" ry="9" fill="#17a2b8" transform="rotate(28 40 12)"/>
  </g>
  
  <!-- Central globe -->
  <g filter="url(#crayon4)">
    <circle cx="50" cy="50" r="22" fill="#0392CF" stroke="#065a7a" stroke-width="2.5"/>
    <!-- Simple land shapes -->
    <ellipse cx="42" cy="44" rx="8" ry="6" fill="#7BC043" transform="rotate(-10 42 44)"/>
    <ellipse cx="58" cy="52" rx="7" ry="10" fill="#7BC043" transform="rotate(15 58 52)"/>
    <ellipse cx="48" cy="62" rx="6" ry="3" fill="#7BC043"/>
  </g>
</svg>
