<svg xmlns="http://www.w3.org/2000/svg" viewBox="0 0 100 100">
  <defs>
    <linearGradient id="rainbow-infinity" x1="0%" y1="0%" x2="100%" y2="0%">
      <stop offset="0%" style="stop-color:#EE4035"/>
      <stop offset="20%" style="stop-color:#F37736"/>
      <stop offset="40%" style="stop-color:#FCE94F"/>
      <stop offset="60%" style="stop-color:#7BC043"/>
      <stop offset="80%" style="stop-color:#0392CF"/>
      <stop offset="100%" style="stop-color:#9B59B6"/>
    </linearGradient>
  </defs>
  <!-- Background circle -->
  <circle cx="50" cy="50" r="48" fill="#FFF8E1" stroke="#9B59B6" stroke-width="3"/>
  <!-- Infinity symbol -->
  <path d="M50 50 
           C50 35, 30 25, 20 35 
           C10 45, 10 55, 20 65 
           C30 75, 50 65, 50 50
           C50 35, 70 25, 80 35 
           C90 45, 90 55, 80 65 
           C70 75, 50 65, 50 50" 
        fill="none" 
        stroke="url(#rainbow-infinity)" 
        stroke-width="10"
        stroke-linecap="round"
        stroke-linejoin="round"/>
  <!-- Small heart in center -->
  <path d="M50 55 C47 52, 44 50, 46 47 C48 45, 50 47, 50 49 C50 47, 52 45, 54 47 C56 50, 53 52, 50 55" 
        fill="#E91E8C"/>
</svg>
